<svg width="47" height="27" viewBox="0 0 47 27" fill="none" xmlns="http://www.w3.org/2000/svg">
<g clip-path="url(#clip0_512_195)">
<path d="M23.6975 15.21C14.8609 15.21 8.33014 10.8584 7.61492 10.3638C6.51625 9.59955 5.77243 8.45518 5.53201 7.13336C5.2916 5.81104 5.57216 4.47158 6.33305 3.36804C7.2661 2.00539 8.81147 1.18921 10.4597 1.18921C11.4726 1.18921 12.4458 1.49421 13.287 2.06891C13.4641 2.1894 17.8543 5.12139 23.6172 5.12139C27.0111 5.12139 30.2102 4.09802 33.1238 2.0805C33.965 1.49975 34.9437 1.18921 35.9626 1.18921C37.6108 1.18921 39.1562 1.99984 40.0893 3.3625C40.8506 4.46603 41.1307 5.80549 40.8903 7.12782C40.6499 8.45014 39.9061 9.60005 38.8069 10.3588C34.1653 13.5776 29.0835 15.21 23.6975 15.21Z" fill="#F4A360"/>
<path d="M23.6975 16.3876C14.8494 16.3876 8.19111 12.1827 6.94588 11.3398C5.59023 10.3991 4.67676 8.98101 4.37712 7.34865C4.07698 5.71326 4.42731 4.06175 5.36538 2.69859C6.51725 1.01581 8.42148 0.0110908 10.4597 0.0110908C11.7065 0.0110908 12.9095 0.379103 13.9389 1.0753C13.9716 1.0995 18.1595 3.93219 23.6172 3.93219C26.7641 3.93219 29.7384 2.97838 32.4573 1.09698C33.4937 0.379103 34.7058 0 35.9631 0C38.0013 0 39.9056 1.00472 41.0569 2.68699C41.9935 4.0567 42.3448 5.70873 42.0452 7.33756C41.7455 8.96992 40.8321 10.388 39.4734 11.3302C34.6315 14.6862 29.3239 16.3876 23.6975 16.3876ZM10.4597 2.36687C9.20396 2.36687 8.02146 2.98846 7.29621 4.02948C6.09515 5.77678 6.53482 8.17895 8.27543 9.38583C8.54596 9.57437 15.0135 14.0263 23.692 14.0263C28.826 14.0263 33.6854 12.465 38.1348 9.38583C38.9775 8.80457 39.5447 7.92688 39.7304 6.91561C39.9161 5.90332 39.6978 4.87843 39.1156 4.03049C38.3998 2.98846 37.2194 2.36637 35.9566 2.36637C35.1751 2.36637 34.4237 2.60129 33.7838 3.04593C30.6685 5.20359 27.246 6.29805 23.6117 6.29805C17.6606 6.29805 13.1153 3.37109 12.6164 3.03736C11.9835 2.59978 11.2367 2.36687 10.4597 2.36687Z" fill="#4C2F1B"/>
<path d="M24.1497 20.3435C16.3717 20.3435 9.25214 17.2048 5.17716 14.2673C4.09004 13.4854 3.37432 12.3244 3.15649 10.9965C2.93916 9.66863 3.24834 8.34076 4.03232 7.24832C4.97088 5.93759 6.49316 5.15015 8.10177 5.15015C9.14925 5.15015 10.1566 5.47228 11.0093 6.08732C11.0781 6.13319 12.7836 7.34612 15.4336 8.4557C18.3984 9.69737 21.323 10.33 24.1271 10.33C28.1906 10.33 31.8997 8.97294 35.1445 6.29451C36.0374 5.55849 37.1651 5.15015 38.321 5.15015C39.8263 5.15015 41.2401 5.82265 42.1958 6.9897C43.043 8.02417 43.4435 9.3349 43.312 10.6744C43.1805 12.0138 42.5396 13.2152 41.5092 14.0717C36.455 18.2342 30.6168 20.3435 24.1497 20.3435Z" fill="#FF6C4A"/>
<path d="M24.1497 21.5332C16.1017 21.5332 8.71861 18.2776 4.49256 15.2311C3.15047 14.2612 2.2641 12.8259 1.99709 11.189C1.73058 9.55719 2.11504 7.91324 3.07869 6.56016C4.23408 4.9399 6.11222 3.97248 8.10177 3.97248C9.39719 3.97248 10.6374 4.37074 11.6884 5.1239C11.7024 5.13399 13.3336 6.29751 15.8848 7.36928C18.7091 8.55196 21.4821 9.15187 24.1271 9.15187C27.9075 9.15187 31.3621 7.88349 34.3951 5.38151C35.4943 4.46904 36.8881 3.96643 38.321 3.96643C40.1851 3.96643 41.9262 4.79774 43.0972 6.2471C44.1447 7.52355 44.633 9.13826 44.4744 10.7953C44.3163 12.4473 43.5248 13.937 42.2469 14.9902C36.9835 19.3317 30.8948 21.5332 24.1497 21.5332ZM8.10177 6.3333C6.8706 6.3333 5.70617 6.93221 4.98644 7.93491C3.75276 9.66003 4.14575 12.0708 5.86126 13.3094C9.78667 16.1406 16.6522 19.1658 24.1497 19.1658C30.3392 19.1658 35.9274 17.1433 40.7593 13.1536C41.5493 12.5018 42.0402 11.5797 42.14 10.5574C42.2404 9.5335 41.9378 8.5318 41.2868 7.73629C40.551 6.84096 39.4699 6.32776 38.3205 6.32776C37.4347 6.32776 36.5704 6.63981 35.8868 7.20696C32.4282 10.0643 28.4716 11.5127 24.1266 11.5127C21.1679 11.5127 18.0912 10.8513 14.9814 9.54661C12.1436 8.35485 10.3483 7.06378 10.3307 7.05068C9.67726 6.58133 8.90633 6.3333 8.10177 6.3333Z" fill="#4C2F1B"/>
<path d="M14.1854 13.928C12.9381 13.928 12.4859 12.7206 12.1823 11.9215C11.8676 11.0822 11.6673 10.6799 11.3983 10.6799C10.7458 10.6799 10.2193 10.151 10.2193 9.49567C10.2193 8.84031 10.7458 8.31148 11.3983 8.31148C13.304 8.31148 13.9906 10.0305 14.363 11.0136C14.8665 10.3068 15.6851 9.26579 17.0874 9.26579C18.5008 9.26579 19.365 10.3063 19.9432 10.9904C20.0461 11.1169 20.1837 11.2833 20.2981 11.4043C20.4923 11.2319 20.7558 10.9329 20.9275 10.7378C21.5398 10.0421 22.238 9.2547 23.2112 9.2547C24.224 9.2547 24.9914 10.1168 25.6665 10.8815C25.7468 10.9733 25.8381 11.0766 25.9355 11.1805C25.9526 11.1573 25.9641 11.1401 25.9757 11.1169C26.4791 10.3754 27.2465 9.2547 28.5509 9.2547C29.5753 9.2547 30.291 10.0764 30.9144 10.8069C30.9777 10.876 31.0519 10.9622 31.1262 11.0484C31.1262 11.0368 31.1322 11.0312 31.1322 11.0252C31.464 9.99627 32.0763 8.08765 33.965 8.08765C34.6175 8.08765 35.144 8.61648 35.144 9.27184C35.144 9.9272 34.6175 10.456 33.965 10.456C33.7532 10.571 33.4957 11.37 33.3758 11.7552C33.0897 12.6515 32.6947 13.8821 31.4414 13.8821C30.4396 13.8821 29.7415 13.0775 29.1291 12.3642C28.9575 12.163 28.6885 11.853 28.5053 11.6916C28.3221 11.8585 28.0646 12.2376 27.91 12.462C27.4578 13.1284 26.9428 13.8816 26.0158 13.8816C25.1515 13.8816 24.5452 13.1919 23.8983 12.462C23.7095 12.2492 23.429 11.9326 23.2172 11.7436C23.0455 11.9044 22.8337 12.1514 22.6847 12.3183C22.0382 13.0538 21.2999 13.8816 20.2579 13.8816C19.2622 13.8816 18.6323 13.1284 18.1233 12.5189C17.7625 12.0879 17.3905 11.6397 17.0759 11.6397C16.8239 11.6397 16.5494 12.0017 16.183 12.5134C15.7764 13.1062 15.1927 13.928 14.1854 13.928Z" fill="#F9AF38"/>
<path d="M23.566 25.8163C15.3418 25.8163 8.85714 22.5511 7.6897 21.7465C6.59053 20.9817 5.84068 20.0158 5.52599 18.9526C5.16562 17.7397 5.39449 16.4461 6.17244 15.3138C7.10549 13.9512 8.65086 13.135 10.2991 13.135C11.312 13.135 12.2852 13.4395 13.1269 14.0142C13.304 14.1347 17.6942 17.0667 23.4576 17.0667C26.8515 17.0667 30.0506 16.0433 32.9642 14.0258C33.8054 13.4456 34.7841 13.135 35.803 13.135C37.4517 13.135 38.9966 13.9451 39.9296 15.3078C40.7026 16.4345 40.9832 17.6535 40.7427 18.8261C40.5078 19.9644 39.7982 20.9757 38.6824 21.7465C33.5073 25.3218 28.3617 25.8163 23.566 25.8163Z" fill="#F4A360"/>
<path d="M23.5605 27C13.8536 27 7.07537 22.7552 7.00812 22.7124C5.69262 21.8019 4.78467 20.6157 4.39268 19.2874C3.93143 17.717 4.21752 16.066 5.19874 14.6388C6.35062 12.956 8.25485 11.9513 10.2931 11.9513C11.5453 11.9513 12.7479 12.3229 13.7703 13.0256C13.8064 13.0518 18.0325 15.883 23.4506 15.883C26.5975 15.883 29.5713 14.9292 32.2906 13.0478C33.3271 12.3304 34.5387 11.9508 35.7959 11.9508C37.8342 11.9508 39.7384 12.9555 40.8898 14.6378C41.8499 16.0352 42.1943 17.5658 41.8851 19.0635C41.5864 20.5104 40.7066 21.7737 39.3409 22.7174C33.9118 26.4812 28.5479 27 23.5605 27ZM10.2936 14.3126C9.03632 14.3126 7.85182 14.9342 7.12506 15.9752C5.99226 17.6258 6.46003 19.4618 8.34419 20.769C8.40091 20.8078 14.6657 24.6331 23.5545 24.6331C28.1589 24.6331 33.0957 24.1648 38.0033 20.769C38.8847 20.1605 39.4348 19.3841 39.5924 18.5241C39.7449 17.6918 39.5226 16.8116 38.9494 15.9768C38.2332 14.9347 37.0527 14.3126 35.7904 14.3126C35.0095 14.3126 34.2581 14.5476 33.6177 14.9922C30.5023 17.1499 27.0793 18.2443 23.4455 18.2443C17.4899 18.2443 12.9487 15.3174 12.4503 14.9836C11.8174 14.5455 11.07 14.3126 10.2936 14.3126Z" fill="#4C2F1B"/>
<path d="M14.1683 22.0626C14.0022 22.0626 13.836 21.9935 13.7216 21.8559C13.5103 21.6089 13.5384 21.2348 13.7904 21.0221C15.0727 19.9241 14.6662 18.3603 14.6486 18.2973C14.5628 17.9807 14.746 17.6591 15.0607 17.5673C15.3754 17.4811 15.6961 17.6596 15.7875 17.9751C15.8161 18.0729 16.4284 20.3264 14.5568 21.9245C14.4373 22.0167 14.3053 22.0626 14.1683 22.0626ZM23.7718 23.5573C23.6689 23.5573 23.566 23.5286 23.4686 23.4767C23.1881 23.3098 23.0967 22.9478 23.2628 22.6665C24.1497 21.1718 23.171 20.0622 23.1655 20.0506C22.9482 19.8091 22.9652 19.4356 23.2056 19.2173C23.446 18.9985 23.818 19.0162 24.0353 19.2576C24.5788 19.8611 25.3347 21.4823 24.2757 23.27C24.1668 23.4535 23.972 23.5573 23.7718 23.5573Z" fill="#4C2F1B"/>
<path d="M33.6503 21.9134C33.5585 21.9134 33.4671 21.8902 33.3813 21.8498C33.0897 21.7006 32.9808 21.3442 33.1293 21.0508C33.8506 19.6483 32.637 18.5498 32.5858 18.5039C32.3453 18.2857 32.3167 17.9176 32.5285 17.6701C32.7398 17.4231 33.1123 17.3999 33.3582 17.6127C34.0453 18.2105 35.0983 19.8086 34.1768 21.5963C34.0684 21.7979 33.8621 21.9134 33.6503 21.9134Z" fill="#4C2F1B"/>
<path d="M45.555 11.1573C45.4065 11.1573 45.2574 11.117 45.1259 11.0424L43.8325 10.2953C43.4375 10.0649 43.2884 9.56531 43.4947 9.15697L44.1532 7.85783C44.3018 7.56494 44.5939 7.38647 44.9201 7.38647C45.298 7.38647 45.6298 7.62795 45.7387 7.98991L46.3741 10.0367C46.4544 10.3013 46.4088 10.5826 46.2481 10.807C46.087 11.0253 45.8296 11.1573 45.555 11.1573Z" fill="#FF6C4A"/>
<path d="M44.9196 7.97277C45.0285 7.97277 45.1369 8.03578 45.1771 8.16232L45.8125 10.2086C45.8697 10.3981 45.7267 10.565 45.555 10.565C45.5093 10.565 45.4637 10.5534 45.418 10.5307L44.1246 9.78359C43.9986 9.70898 43.9529 9.55371 44.0157 9.42717L44.6797 8.12199C44.7309 8.02419 44.8222 7.97277 44.9196 7.97277ZM44.9196 6.78857C44.37 6.78857 43.8781 7.09307 43.6262 7.58157L42.9682 8.8807C42.6194 9.57034 42.8708 10.4153 43.5404 10.8004L44.8338 11.5475C45.0566 11.6741 45.3031 11.7431 45.555 11.7431C46.0133 11.7431 46.4539 11.5188 46.7224 11.1452C46.9915 10.7772 47.0713 10.2887 46.9343 9.85165L46.2988 7.80489C46.1101 7.20196 45.555 6.78857 44.9196 6.78857Z" fill="#4C2F1B"/>
<path d="M1.45101 9.51336C1.17647 9.51336 0.918992 9.38128 0.758382 9.15695C0.598274 8.93261 0.552601 8.65685 0.632404 8.38664L1.26782 6.33989C1.38225 5.97793 1.70849 5.73645 2.09195 5.73645C2.41819 5.73645 2.7103 5.91441 2.85886 6.20781L3.51736 7.50694C3.72314 7.91478 3.57458 8.41538 3.17958 8.64526L1.88617 9.39237C1.74864 9.47303 1.60008 9.51336 1.45101 9.51336Z" fill="#FF6C4A"/>
<path d="M2.08642 6.33434C2.18379 6.33434 2.27514 6.38022 2.32684 6.48356L2.98484 7.78269C3.04757 7.90923 3.0019 8.07005 2.87592 8.13911L1.58251 8.88623C1.53684 8.90942 1.49116 8.92051 1.44549 8.92051C1.27384 8.92051 1.13079 8.75364 1.18801 8.56409L1.82342 6.51734C1.8686 6.39736 1.97751 6.33434 2.08642 6.33434ZM2.08642 5.15015C1.45101 5.15015 0.889879 5.55849 0.701162 6.17302L0.0657486 8.21977C-0.0712718 8.6624 0.0085313 9.14535 0.277553 9.51336C0.552096 9.88742 0.987248 10.1113 1.44499 10.1113C1.69694 10.1113 1.9484 10.0427 2.16623 9.91565L3.45964 9.16854C4.12918 8.78288 4.38114 7.93847 4.02629 7.24832L3.36829 5.94919C3.12788 5.45464 2.63601 5.15015 2.08642 5.15015Z" fill="#4C2F1B"/>
</g>
<defs>
<clipPath id="clip0_512_195">
<rect width="47" height="27" fill="white"/>
</clipPath>
</defs>
</svg>
