<svg width="30" height="31" viewBox="0 0 30 31" fill="none" xmlns="http://www.w3.org/2000/svg">
<g clip-path="url(#clip0_512_251)">
<path d="M3.94836 2.81465V25.2496C3.94836 26.247 4.73025 27.0493 5.70291 27.0493H27.4657C29.0299 27.0493 29.831 25.1127 28.7245 23.9587L6.96171 1.54351C5.8556 0.389479 3.94836 1.19129 3.94836 2.81465Z" fill="#FCDB9A"/>
<path d="M1.25881 4.84897L4.74907 1.28907C5.16867 0.878513 6.27478 1.32811 6.67556 1.7584L28.3999 24.3302C28.7053 24.6429 29.2391 25.8364 28.5906 26.736L25.7676 29.4941C25.4434 29.9635 25.0811 29.9832 24.6804 29.5722L1.86918 6.74603C1.41151 6.29644 0.80114 5.3183 1.25881 4.84897Z" fill="#F7C18B"/>
<path d="M25.2343 31.0001C24.872 31.0001 24.3951 30.883 23.8993 30.3742L1.10611 7.56773C0.915766 7.39184 0 6.4137 0 5.27941C0 4.81008 0.171519 4.36005 0.496165 4.0473L3.96761 0.487403C4.99758 -0.529774 6.79061 0.252738 7.45787 0.956735L29.1822 23.5281C29.7733 24.115 30.5171 25.9339 29.4872 27.4007L29.3537 27.5573L26.588 30.2566C26.1684 30.8045 25.6915 30.9606 25.348 31.0001H25.2343ZM2.26953 5.41626C2.34609 5.57285 2.47954 5.76848 2.65106 5.94437L25.1958 28.5161L27.7514 26.0322C27.9234 25.6997 27.6945 25.2106 27.618 25.1326L5.89367 2.5608C5.79828 2.46298 5.53138 2.34587 5.34061 2.28709L2.26953 5.41626Z" fill="#4C2F1B"/>
<path d="M19.5694 26.2663C18.749 26.2663 18.2725 25.6991 17.8718 25.1903C17.7956 25.1123 17.7383 25.0144 17.6429 24.9359L4.48216 11.2841L4.46291 11.2643C3.75716 10.4428 3.45219 9.34755 3.64296 8.27159C3.83372 7.19564 4.46291 6.25698 5.41675 5.72887C6.5421 5.08365 8.06781 4.2814 8.56397 4.10551C8.88819 3.98839 9.17434 3.8511 9.44167 3.71425C9.99472 3.45985 10.5097 3.20544 11.1581 3.20544C12.7792 3.20544 14.0954 4.65292 17.5095 9.30807C20.1417 12.907 23.4412 15.7432 25.8634 17.8359C26.7407 18.5986 27.5038 19.2443 28.0568 19.7917C28.4191 20.1632 28.6099 20.6523 28.5911 21.1997C28.5149 22.4906 27.2176 23.7622 26.7219 24.1337L26.5504 24.2705L20.7902 25.8549C20.4467 26.0514 20.0463 26.2663 19.5694 26.2663Z" fill="#FF9988"/>
<path d="M19.5694 27.1646C18.3619 27.1646 17.6699 26.3361 17.2114 25.7878L17.1771 25.7479C17.1203 25.6895 17.0557 25.6237 17.0078 25.5575L3.82561 11.8798L3.81534 11.8561C2.90599 10.8056 2.52959 9.4454 2.76356 8.09794C3.00009 6.75354 3.80636 5.60215 4.97534 4.9385C5.96553 4.3582 7.66532 3.46735 8.2419 3.25198C8.44208 3.1704 8.61787 3.09057 8.7941 3.01161L9.15809 2.84844C9.72056 2.59492 10.3579 2.30762 11.1389 2.30762C13.2386 2.30762 14.8178 4.17661 18.1836 8.76597C20.7405 12.2684 23.9896 15.0625 26.3617 17.1021L26.402 17.1367C27.1501 17.7736 28.0008 18.5074 28.6433 19.1233C29.2019 19.6781 29.4816 20.4317 29.429 21.2432C29.3015 23.2415 27.2497 24.8193 27.2292 24.8333L26.9058 25.0719L26.544 25.1781L21.1152 26.6729L21.0853 26.6922C20.6062 27.0063 20.0964 27.1646 19.5694 27.1646ZM11.1389 4.08406C10.6705 4.08406 10.2633 4.28056 9.7475 4.52926C9.4806 4.65822 9.1782 4.80428 8.82575 4.94026C8.43951 5.07185 6.96214 5.85304 5.8201 6.49958C5.11863 6.89478 4.63572 7.58387 4.49543 8.38963C4.35385 9.2024 4.57755 10.0288 5.10922 10.6565L18.2798 24.3201C18.3692 24.4228 18.4565 24.5276 18.5369 24.6241C18.8966 25.0561 19.1567 25.3685 19.569 25.3685C19.806 25.3685 20.0493 25.2627 20.377 25.0158L26.1175 23.4315L26.1526 23.4052C26.7386 22.963 27.627 21.9358 27.674 21.1361C27.6907 20.8493 27.6009 20.6023 27.4135 20.4216C26.8588 19.8742 26.0893 19.2101 25.1983 18.4408C22.7723 16.3468 19.4492 13.4786 16.7781 9.83139C13.488 5.31967 12.2758 4.08406 11.1389 4.08406Z" fill="#4C2F1B"/>
<path d="M16.0218 24.6039C13.1988 24.6039 10.3378 23.0784 8.37321 20.5356C5.1306 16.3503 5.26406 10.6972 8.67861 7.91983C9.89935 6.92239 11.4251 6.39429 13.0654 6.39429C15.8884 6.39429 18.749 7.91983 20.714 10.463C23.9566 14.6484 23.8232 20.3014 20.4086 23.0788C19.1879 24.0758 17.6622 24.6039 16.0218 24.6039Z" fill="#FF624D"/>
<path d="M16.0218 25.5018C12.9277 25.5018 9.80781 23.8539 7.67687 21.0932C4.14384 16.5354 4.34145 10.3139 8.11658 7.2242C9.4836 6.10614 11.1885 5.51575 13.0461 5.51575C16.1215 5.51575 19.2409 7.16455 21.3915 9.92527C23.0691 12.0903 23.9725 14.6765 23.9352 17.2069C23.898 19.9176 22.8381 22.2568 20.9514 23.7929C19.5844 24.911 17.8795 25.5018 16.0218 25.5018ZM13.0461 7.29219C11.6056 7.29219 10.2766 7.74924 9.20343 8.61377C6.18624 11.0811 6.11823 16.17 9.05116 19.9584C10.8716 22.2928 13.4773 23.6863 16.0218 23.6863C17.4624 23.6863 18.7914 23.2293 19.8646 22.3647C22.8818 19.897 22.9498 14.8085 20.0168 11.0201C18.1964 8.68527 15.5903 7.29219 13.0461 7.29219Z" fill="#4C2F1B"/>
<path d="M20.0844 15.7042C20.0844 15.9849 20.3064 16.213 20.5806 16.213C20.8543 16.213 21.0763 15.9853 21.0763 15.7042C21.0763 15.4234 20.8543 15.1958 20.5806 15.1958C20.3064 15.1958 20.0844 15.4234 20.0844 15.7042Z" fill="#FF7A6C"/>
<path d="M4.48216 4.20333C4.48216 4.20333 7.34323 1.87597 9.23165 4.20333C11.1196 6.53112 9.88009 7.39171 12.3404 7.97859C14.8011 8.56504 13.3896 11.2451 14.8961 11.8903C16.4029 12.5355 19.3594 11.3231 19.4355 14.2571C19.5121 17.1911 19.9505 17.0735 21.0759 18.0319C22.2205 18.9903 24.9862 16.9955 25.2531 19.8707C25.5012 22.7656 25.1765 22.7261 25.9776 23.7043C27.4084 25.4645 24.0131 26.5597 21.8578 26.208C19.7024 25.8755 20.8659 25.093 20.0078 24.3692C19.1494 23.6455 2.74644 4.9468 2.74644 4.9468C2.74644 4.9468 2.72762 4.45773 4.48216 4.20333Z" fill="#6CEA90"/>
<path d="M22.6974 27.1664C22.3544 27.1664 22.0297 27.1467 21.7247 27.0879C20.2944 26.8533 19.6648 26.3642 19.5314 25.2887C19.5121 25.1128 19.5121 25.1128 19.4548 25.054C18.5968 24.3303 4.84445 8.66337 2.09801 5.53376L1.88842 5.29866L1.86917 4.96662C1.8311 4.14507 2.59417 3.59722 4.11988 3.34282C5.436 2.38442 8.06781 1.36724 9.89934 3.61652C10.7574 4.69248 11.0435 5.49429 11.2535 6.08117C11.4824 6.74613 11.5204 6.84395 12.5316 7.07861C14.4961 7.54794 14.7442 9.11297 14.8965 10.0714C14.9919 10.7368 15.0684 10.9517 15.24 11.0298C15.5642 11.1666 16.098 11.1864 16.613 11.2057C17.9672 11.2644 20.2559 11.3425 20.3325 14.2177C20.3898 16.3104 20.5421 16.428 21.2098 16.9561C21.3432 17.0732 21.4959 17.1907 21.6674 17.328C21.8201 17.4649 22.4112 17.4061 22.7928 17.3671C23.8039 17.2692 25.9208 17.0934 26.1496 19.7927C26.2262 20.6726 26.245 21.2989 26.2638 21.7485C26.3019 22.6679 26.3019 22.6679 26.6642 23.1175C27.2557 23.8412 27.3891 24.6825 26.9884 25.4062C26.283 26.6383 24.2997 27.1664 22.6974 27.1664ZM21.2859 25.1321C21.362 25.1711 21.572 25.2492 21.9916 25.308C23.5747 25.5624 25.3104 24.8974 25.4438 24.5062C25.4438 24.5062 25.425 24.4281 25.3104 24.2912C24.6046 23.4306 24.5473 23.0196 24.5093 21.8463C24.4904 21.416 24.4712 20.8094 24.3951 19.9686C24.3189 19.1277 24.2043 19.0689 22.9455 19.186C22.1443 19.2641 21.2478 19.3426 20.5421 18.736C20.3894 18.6189 20.2559 18.5013 20.1417 18.4035C19.0544 17.5429 18.6541 16.9951 18.5779 14.2765C18.5587 13.2005 18.1776 13.0834 16.5753 13.0246C15.9076 13.0049 15.2019 12.9659 14.5915 12.7115C13.4662 12.2421 13.3139 11.1469 13.18 10.3644C13.0273 9.42571 12.9512 9.03445 12.1693 8.85812C10.3763 8.42783 9.99472 7.74313 9.63244 6.70665C9.44167 6.19829 9.2509 5.6114 8.58322 4.78985C7.2671 3.16649 5.15027 4.84819 5.07371 4.9267L4.88294 5.08329L4.65411 5.12233C4.48259 5.14207 4.32989 5.18111 4.19644 5.20085C10.7005 12.6137 19.9321 23.078 20.6186 23.6842C21.2102 24.1732 21.2863 24.7601 21.3244 25.0729C21.2671 25.0733 21.2859 25.093 21.2859 25.1321Z" fill="#4C2F1B"/>
<path d="M1.02997 5.74864V28.1831C1.02997 29.1806 1.81186 29.9828 2.78451 29.9828H24.5473C26.1111 29.9828 26.9127 28.0463 25.8061 26.8927L4.04374 4.4775C2.93764 3.34277 1.02997 4.14502 1.02997 5.74864Z" fill="#FFE9B8"/>
<path d="M2.78493 30.9C1.33451 30.9 0.154404 29.6903 0.154404 28.2029V5.74911C0.154404 4.6407 0.793857 3.65949 1.78405 3.24981C2.10356 3.11559 2.43976 3.04761 2.78536 3.04761C3.48555 3.04761 4.16992 3.3371 4.66266 3.84284L26.425 26.2769C27.1945 27.066 27.4097 28.1959 26.9862 29.2258C26.5623 30.2587 25.6282 30.9004 24.5477 30.9004H2.78493V30.9ZM2.80375 4.8473C2.66217 4.8473 2.54797 4.88809 2.47996 4.91221L2.43377 4.93064C1.99748 5.15434 1.90595 5.50962 1.90595 5.76797V28.2025C1.90595 28.7016 2.317 29.1236 2.80418 29.1236H24.5666C24.8189 29.1236 25.1658 29.0293 25.3835 28.5814C25.4802 28.3832 25.5529 27.9467 25.212 27.5721L3.42524 5.11223C3.25629 4.93853 3.04114 4.8473 2.80375 4.8473Z" fill="#4C2F1B"/>
<path d="M15.5069 9.50422C15.5069 9.78494 15.7289 10.013 16.0026 10.013C16.2763 10.013 16.4983 9.78538 16.4983 9.50422C16.4983 9.2235 16.2763 8.99585 16.0026 8.99585C15.7289 8.99585 15.5069 9.2235 15.5069 9.50422Z" fill="#FF7461"/>
<path d="M17.6237 10.4236C17.6237 10.7043 17.8457 10.932 18.1194 10.932C18.3932 10.932 18.6152 10.7043 18.6152 10.4236C18.6152 10.1429 18.3932 9.91479 18.1194 9.91479C17.8457 9.91479 17.6237 10.1424 17.6237 10.4236Z" fill="#FF7A6C"/>
<path d="M4.13913 18.1495C4.13913 18.7004 4.57456 19.147 5.11178 19.147C5.64901 19.147 6.08444 18.7004 6.08444 18.1495C6.08444 17.7929 5.89923 17.4639 5.59811 17.2854C5.29742 17.1073 4.92658 17.1073 4.62546 17.2854C4.32434 17.4639 4.13913 17.7929 4.13913 18.1495Z" fill="#FFD899"/>
<path d="M16.651 26.2664C16.651 26.8173 17.0865 27.2638 17.6237 27.2638C18.1609 27.2638 18.5963 26.8173 18.5963 26.2664C18.5963 25.7154 18.1609 25.2689 17.6237 25.2689C17.0865 25.2689 16.651 25.7154 16.651 26.2664Z" fill="#FFD899"/>
<path d="M11.3489 20.2422C11.3489 20.5988 11.5341 20.9278 11.8352 21.1063C12.1359 21.2844 12.5072 21.2844 12.8079 21.1063C13.109 20.9278 13.2942 20.5988 13.2942 20.2422C13.2942 19.886 13.109 19.5566 12.8079 19.3786C12.5072 19.2005 12.1359 19.2005 11.8352 19.3786C11.5341 19.5566 11.3489 19.886 11.3489 20.2422Z" fill="#FFD899"/>
<path d="M11.3489 25.1321C11.3489 25.4882 11.5341 25.8176 11.8352 25.9957C12.1359 26.1738 12.5072 26.1738 12.8079 25.9957C13.109 25.8176 13.2942 25.4882 13.2942 25.1321C13.2942 24.7755 13.109 24.4465 12.8079 24.268C12.5072 24.0899 12.1359 24.0899 11.8352 24.268C11.5341 24.4465 11.3489 24.7755 11.3489 25.1321Z" fill="#FFD899"/>
<path d="M8.69742 21.9634C8.69742 22.3195 8.88305 22.6489 9.18375 22.827C9.48487 23.0051 9.85571 23.0051 10.1564 22.827C10.4575 22.6489 10.6427 22.3195 10.6427 21.9634C10.6427 21.6068 10.4575 21.2778 10.1564 21.0997C9.85571 20.9212 9.48444 20.9212 9.18375 21.0997C8.88305 21.2778 8.69742 21.6072 8.69742 21.9634Z" fill="#FFD899"/>
<path d="M8.10631 14.7265C8.10631 15.0831 8.29151 15.412 8.59264 15.5906C8.89333 15.7686 9.2646 15.7686 9.56529 15.5906C9.86598 15.412 10.0516 15.0831 10.0516 14.7265C10.0516 14.3703 9.86641 14.0409 9.56529 13.8628C9.26417 13.6847 8.89333 13.6847 8.59264 13.8628C8.29151 14.0405 8.10631 14.3703 8.10631 14.7265Z" fill="#FFD899"/>
<path d="M3.70027 21.8656C3.70027 22.4165 4.1357 22.8631 4.67293 22.8631C5.21015 22.8631 5.64558 22.4165 5.64558 21.8656C5.64558 21.5095 5.46037 21.1801 5.15925 21.002C4.85856 20.8239 4.48729 20.8239 4.1866 21.002C3.88548 21.1801 3.70027 21.5095 3.70027 21.8656Z" fill="#FFE3B6"/>
<path d="M5.85561 25.4645C5.85561 25.8211 6.04081 26.1501 6.34193 26.3286C6.64263 26.5067 7.01389 26.5067 7.31459 26.3286C7.61571 26.1501 7.80091 25.8211 7.80091 25.4645C7.80091 25.1083 7.61571 24.7789 7.31459 24.6008C7.01389 24.4228 6.64263 24.4228 6.34193 24.6008C6.04081 24.7789 5.85561 25.1083 5.85561 25.4645Z" fill="#FFE3B6"/>
<path d="M15.0872 22.9415C15.0872 23.4924 15.5227 23.939 16.0599 23.939C16.5971 23.939 17.0326 23.4924 17.0326 22.9415C17.0326 22.3906 16.5971 21.9441 16.0599 21.9441C15.5227 21.9437 15.0872 22.3906 15.0872 22.9415Z" fill="#FFE3B6"/>
<path d="M4.42485 14.0224C4.42485 14.5734 4.86071 15.0199 5.3975 15.0199C5.93473 15.0199 6.37016 14.5734 6.37016 14.0224C6.37016 13.6658 6.18495 13.3369 5.88383 13.1583C5.58271 12.9803 5.21187 12.9803 4.91118 13.1583C4.61048 13.3369 4.42485 13.6658 4.42485 14.0224Z" fill="#FFE3B6"/>
</g>
<defs>
<clipPath id="clip0_512_251">
<rect width="30" height="31" fill="white"/>
</clipPath>
</defs>
</svg>
