<svg width="46" height="27" viewBox="0 0 46 27" fill="none" xmlns="http://www.w3.org/2000/svg">
<g clip-path="url(#clip0_512_417)">
<path d="M8.97243 25.7408C7.32905 25.7408 6.47079 25.0481 6.03521 24.4631C5.12157 23.2398 5.45283 21.7698 5.63082 21.1911C5.72278 20.8958 5.8271 20.5164 5.94326 20.0704C6.67299 17.3168 8.03458 12.1827 11.9774 9.76677C14.6323 8.13977 19.8754 7.56116 23.8983 7.56116C26.3386 7.56116 32.3545 7.7963 35.5127 9.98923C40.1487 13.201 41.3194 21.6673 41.3689 22.0287C41.3753 22.0889 41.3812 22.1492 41.3812 22.2152C41.3812 24.4266 40.0385 25.7466 37.788 25.7466H8.97243V25.7408Z" fill="white"/>
<path d="M8.96651 27C6.67621 27 5.48993 25.8771 4.98605 25.2076C4.09661 24.0192 3.87989 22.4165 4.3913 20.8112C4.46228 20.5972 4.54778 20.278 4.6478 19.9044L4.6876 19.7554C5.46788 16.8259 6.92089 11.3731 11.2896 8.69564C14.1833 6.9265 19.7001 6.29663 23.8989 6.29663C27.0834 6.29663 32.9229 6.64116 36.2548 8.94928C41.2484 12.4109 42.5175 20.9 42.646 21.8564C42.6632 21.9721 42.6686 22.0905 42.6686 22.203C42.6686 25.1167 40.7531 26.9995 37.7885 26.9995H8.96651V27ZM23.8983 8.8325C19.0612 8.8325 14.6468 9.6246 12.6528 10.8511C9.13859 13.0059 7.86357 17.8188 7.17847 20.4048C7.05533 20.8714 6.94939 21.2709 6.85152 21.5784C6.59394 22.3996 6.67406 23.2023 7.06716 23.7244C7.44466 24.2269 8.08405 24.4816 8.96651 24.4816H37.7874C39.3173 24.4816 40.0933 23.7191 40.0933 22.2157C40.0842 22.1523 39.0097 13.9645 34.7712 11.0244C32.7632 9.632 28.8005 8.8325 23.8983 8.8325Z" fill="#4C2F1B"/>
<path d="M8.9665 26.8431C6.74666 26.8431 5.60017 25.7598 5.11457 25.1146C4.25632 23.9674 4.04767 22.416 4.54348 20.8582C4.61446 20.6442 4.70104 20.3219 4.80214 19.9446L4.84193 19.7956C5.6206 16.8724 7.05963 11.473 11.374 8.82881C14.2386 7.07763 19.7221 6.4541 23.8983 6.4541C27.0635 6.4541 32.8664 6.79493 36.1623 9.07822C41.1005 12.5018 42.3594 20.928 42.4869 21.8781C42.5035 21.9885 42.5078 22.0995 42.5078 22.2046C42.5078 25.0227 40.6547 26.8436 37.7874 26.8436H8.9665V26.8431ZM23.8983 8.67557C19.0327 8.67557 14.586 9.47718 12.5684 10.7179C9.00038 12.9061 7.71461 17.7585 7.02414 20.3657C6.90153 20.8286 6.79667 21.226 6.69933 21.5314C6.42669 22.4012 6.51596 23.2551 6.93863 23.8179C7.3484 24.3627 8.03028 24.639 8.9665 24.639H37.7874C39.4007 24.639 40.253 23.801 40.253 22.2157C40.2052 21.8358 39.0979 13.834 34.8631 10.896C32.8293 9.4851 28.8327 8.67557 23.8983 8.67557Z" fill="#4C2F1B"/>
<path d="M19.1828 24.9397V12.9604L27.6142 13.0508V24.9391H19.1828V24.9397Z" fill="#4C2F1B"/>
<path d="M20.0534 13.8223L26.7495 13.8883V24.0836H20.0534V13.8223ZM18.318 12.0991V25.7952H28.4854V12.2074L26.7683 12.1895L20.0722 12.1171L18.318 12.0991Z" fill="#4C2F1B"/>
<path d="M1.94183 14.132C5.08661 4.63261 13.4901 2.26318 23.4246 2.26318C32.8137 2.26318 40.245 4.63313 43.9345 14.1383C47.3906 23.0405 31.8216 13.6448 23.4246 13.6448C15.027 13.6448 -1.054 23.1763 1.94183 14.132Z" fill="#FF6C4A"/>
<path d="M20.7525 2.65107C20.7525 2.65107 19.8264 8.20051 21.4822 13.3404C21.4822 13.3404 22.598 12.8944 25.0142 13.3103C25.0142 13.3103 23.0578 7.31488 24.4624 2.55437C24.456 2.54856 22.5432 2.39796 20.7525 2.65107Z" fill="#FFAF9F"/>
<path d="M33.8285 3.95947C32.2996 10.6947 33.8285 15.7257 33.8285 15.7257L37.2265 16.7292C37.2265 16.7292 36.5135 10.3348 36.8926 5.58805C36.8926 5.58118 34.7088 4.23689 33.8285 3.95947Z" fill="#FFAF9F"/>
<path d="M34.4577 16.5395C34.2157 15.5286 33.1794 10.5626 34.4259 4.1814C35.2336 4.56556 36.5172 5.39253 36.9722 5.69425C36.6743 10.0717 37.1222 15.6861 37.2803 17.4441L34.4577 16.5395Z" fill="#FFAF9F"/>
<path d="M21.657 13.7018C20.3056 8.84884 20.8267 3.69202 20.9751 2.49779C21.6069 2.41483 22.3114 2.37256 23.0729 2.37256C23.4842 2.37256 23.8365 2.38577 24.0833 2.39845C23.0277 6.85248 24.1774 12.0024 24.6119 13.6669C24.0801 13.5893 23.573 13.5502 23.1003 13.5502C22.4281 13.5507 21.949 13.631 21.657 13.7018Z" fill="#FFAF9F"/>
<path d="M5.10973 20.0106C2.70597 20.0106 1.45892 19.0035 0.835662 18.1591C-0.624339 16.1643 0.215094 13.6775 0.490424 12.8601C4.38215 1.3332 15.4298 0 23.4014 0C31.2725 0 40.8811 1.44681 45.3466 12.728C45.6768 13.5602 46.6797 16.0887 45.266 18.1141C44.6863 18.9511 43.5091 19.9493 41.1973 19.9493C38.9721 19.9493 35.9956 19.0336 32.8438 18.065C29.5904 17.0673 25.9025 15.9365 23.402 15.9365C20.9272 15.9365 17.2291 17.0562 13.9665 18.0444C10.6384 19.0563 7.50166 20.0106 5.10973 20.0106ZM23.4014 2.53006C11.8413 2.53006 5.52918 5.96054 2.93398 13.6527C2.46344 15.0525 2.46129 16.0417 2.92752 16.6753C3.32277 17.2132 4.03637 17.4742 5.10919 17.4742C7.08866 17.4742 10.0587 16.5759 13.2029 15.6253C16.8193 14.532 20.5578 13.4012 23.4009 13.4012C26.2908 13.4012 30.1787 14.5949 33.6085 15.6475C36.5791 16.5595 39.3835 17.4203 41.1962 17.4203C42.162 17.4203 42.7977 17.1815 43.1408 16.6895C43.572 16.0707 43.508 15.0763 42.9461 13.6511C39.0705 3.85163 30.8913 2.53006 23.4014 2.53006Z" fill="#4C2F1B"/>
<path d="M5.10974 19.8532C2.7732 19.8532 1.56648 18.8814 0.965267 18.0666C-0.446337 16.1379 0.372662 13.7082 0.642077 12.9098C4.50154 1.47908 15.4798 0.156982 23.4014 0.156982C31.222 0.156982 40.7671 1.59269 45.1977 12.7851C45.5198 13.5973 46.5006 16.0671 45.1342 18.0254C44.5755 18.8323 43.4398 19.793 41.1973 19.793C38.9968 19.793 36.0311 18.8809 32.8917 17.9155C29.6265 16.9141 25.9256 15.7802 23.402 15.7802C20.9014 15.7802 17.1888 16.9052 13.9133 17.897C10.6029 18.9031 7.47693 19.8532 5.10974 19.8532ZM23.4014 2.37316C11.7617 2.37316 5.40227 5.83694 2.78234 13.6031C2.29459 15.0546 2.29997 16.0893 2.79847 16.7672C3.22598 17.349 3.98207 17.6312 5.10974 17.6312C7.11287 17.6312 10.0942 16.7297 13.2508 15.7754C16.8554 14.6853 20.5831 13.5582 23.402 13.5582C26.2666 13.5582 30.1422 14.7476 33.5618 15.7971C36.5436 16.7123 39.3598 17.5768 41.1973 17.5768C42.2201 17.5768 42.8988 17.3152 43.2736 16.7778C43.7366 16.1131 43.6785 15.0716 43.0961 13.5941C39.1845 3.70636 30.9456 2.37316 23.4014 2.37316Z" fill="#4C2F1B"/>
<path d="M8.91166 5.75132C8.91166 5.75132 7.307 11.8096 11.6074 16.1416L14.3537 15.35C14.3537 15.35 10.967 11.0682 11.6451 4.21204L8.91166 5.75132Z" fill="#FFAF9F"/>
<path d="M11.8166 16.3102C8.08513 12.0659 9.03749 6.32362 9.23485 5.34341L11.3606 4.04456C10.9858 10.17 13.1841 14.3281 13.9907 15.6306L11.8166 16.3102Z" fill="#FFAF9F"/>
</g>
<defs>
<clipPath id="clip0_512_417">
<rect width="46" height="27" fill="white"/>
</clipPath>
</defs>
</svg>
